<svg id="Слой_1" data-name="Слой 1" xmlns="http://www.w3.org/2000/svg" viewBox="0 0 200 200"><title>icon-3</title><rect x="31.88" y="74.09" width="135.07" height="91.83" rx="3.02" ry="3.02" transform="translate(9.15 -7.02) rotate(4.24)" style="fill:#f8d8e9"/><path d="M160.58,171.79l-.31,0L31.6,162.23a4.24,4.24,0,0,1-3.92-4.54L34,72.14a4.23,4.23,0,0,1,4.54-3.91l128.67,9.54a4.23,4.23,0,0,1,3.91,4.54l-6.34,85.55A4.26,4.26,0,0,1,160.58,171.79Zm-.13-2.44a1.78,1.78,0,0,0,1.93-1.67l6.35-85.55a1.79,1.79,0,0,0-.44-1.31,1.74,1.74,0,0,0-1.23-.62L38.39,70.65a1.84,1.84,0,0,0-1.94,1.67l-6.34,85.55a1.78,1.78,0,0,0,.43,1.31,1.83,1.83,0,0,0,1.24.63Z" style="fill:#f747ab"/><circle cx="105.49" cy="17.78" r="4.82" style="fill:#fff"/><path d="M105.5,23.74h-.45a6,6,0,1,1,6.39-5.51h0A6,6,0,0,1,105.5,23.74Zm0-9.64a3.68,3.68,0,1,0,.27,0Z" style="fill:#9c11a5"/><rect x="49.98" y="43.21" width="62.07" height="2.29" transform="translate(-6.57 73.69) rotate(-47.21)" style="fill:#9c11a5"/><rect x="124.63" y="16.64" width="2.29" height="62.07" transform="translate(-4.98 79.21) rotate(-34.32)" style="fill:#9c11a5"/><path d="M26.19,172.4c-9.23-.68-13-6.5-9.64-14.47,5.32-12.64,5.64-25.47,3.75-38.93-.83-6,2.47-12.35,2.82-18.6.51-9-.17-18,.09-27,.11-4,0-9.43,2.33-11.42s8.25-2.17,11.77-.88c15,5.48,30.09,7.84,46.08,5.63,12.62-1.74,25,1.06,37.52,3.15,13.51,2.26,27.65.65,41.5,1,4.54.12,10.25-.26,13.16,2.23,2.09,1.79,1.37,8.25.24,12.14-3.13,10.76-6.46,21.9-3.4,32.62,2.63,9.17-2.63,16.3-2.57,24.5.06,8.72.34,17.45.15,26.17-.09,4,.28,9.83-2,11.48-3,2.15-8.8,2.3-12.58,1-15-5.32-30-7.46-46.11-5.63a87.36,87.36,0,0,1-32.43-2.18c-16.21-4.49-31.9-5-48-1A13.24,13.24,0,0,1,26.19,172.4Zm11.7-95.17-5.83,78.54,123.34,9.14,5.82-78.53Z" style="fill:#eb88c1"/><path d="M160.9,182.91a18.17,18.17,0,0,1-5.84-.91c-15.51-5.48-30.45-7.3-45.65-5.57a88.6,88.6,0,0,1-32.82-2.22c-16.34-4.52-31.86-4.85-47.47-1a11.08,11.08,0,0,1-2.44.24l-.4,0h-.16c-5-.37-8.64-2.18-10.5-5.23-1.76-2.87-1.77-6.57,0-10.7,4.7-11.15,5.83-23,3.68-38.38-.51-3.65.44-7.43,1.36-11.09a43.18,43.18,0,0,0,1.45-7.71c.28-5,.19-10.07.11-15-.07-3.92-.14-8,0-12l0-1.2c.09-4.17.2-8.89,2.67-11,2.8-2.36,9-2.46,12.81-1.06,15.87,5.79,30.77,7.62,45.58,5.58,11-1.52,22,.4,32.59,2.25q2.61.47,5.24.9c8.84,1.48,18.16,1.28,27.18,1.08,4.65-.1,9.47-.2,14.18-.08.67,0,1.37,0,2.08,0,4.2,0,9,.09,11.73,2.46s1.39,10.39.56,13.22l-.15.52c-3,10.46-6.18,21.27-3.24,31.52,1.66,5.79.34,10.75-.94,15.55a35.15,35.15,0,0,0-1.6,9.23q0,4.23.11,8.45c.08,5.82.18,11.83,0,17.76,0,.58,0,1.2,0,1.85,0,4.09-.05,8.73-2.41,10.45A13.6,13.6,0,0,1,160.9,182.91Zm-40.45-9.2A105.06,105.06,0,0,1,155.76,180c3.33,1.18,8.92,1.13,11.62-.82,1.51-1.1,1.53-5.53,1.55-8.77,0-.66,0-1.29,0-1.89.13-5.88,0-11.88,0-17.67q-.08-4.24-.11-8.47a37.24,37.24,0,0,1,1.67-9.78c1.26-4.74,2.45-9.21.95-14.45-3.1-10.83.12-21.93,3.24-32.67l.16-.52c1.22-4.21,1.55-9.79.08-11-2.19-1.88-6.54-1.92-10.39-2-.72,0-1.43,0-2.11,0-4.67-.12-9.46,0-14.09.08-9.11.2-18.53.4-27.57-1.11q-2.62-.44-5.25-.9c-10.93-1.91-21.25-3.72-31.95-2.24C68.38,69.86,53.15,68,37,62.09c-3.2-1.17-8.59-1.12-10.74.7-1.76,1.49-1.86,6.08-1.93,9.44l0,1.21c-.11,3.94,0,8,0,11.86.08,5,.17,10.11-.12,15.16a43.93,43.93,0,0,1-1.5,8.1c-.92,3.62-1.78,7-1.32,10.29,2.18,15.57,1,28.11-3.83,39.48-1.46,3.48-1.5,6.53-.11,8.8,1.49,2.44,4.53,3.9,8.8,4.23l.45,0a9.05,9.05,0,0,0,2-.18c16-3.92,31.84-3.58,48.52,1a86.56,86.56,0,0,0,32,2.15A101.64,101.64,0,0,1,120.45,173.71ZM156.36,166l-125.42-9.3,6-80.62,125.42,9.31ZM33.18,154.8l121.25,9,5.67-76.45-121.25-9Z" style="fill:#f747ab"/><rect x="46.51" y="86.52" width="26.86" height="63.94" transform="translate(8.93 -4.11) rotate(4.24)" style="fill:#9c11a5"/><polygon points="48.93 85.38 49.41 84.97 49.81 85.43 50.29 85.01 50.7 85.5 51.16 85.1 51.57 85.58 52.04 85.17 52.45 85.64 52.94 85.21 53.35 85.69 53.76 85.33 54.14 85.77 54.62 85.35 55.02 85.82 55.5 85.4 55.92 85.89 56.4 85.47 56.81 85.95 57.29 85.53 57.71 86.03 58.19 85.61 58.6 86.09 59.09 85.67 59.52 86.17 60.02 85.73 60.45 86.24 60.95 85.8 61.39 86.31 61.9 85.87 62.33 86.38 62.28 87.05 48.88 86.06 48.93 85.38" style="fill:#9c11a5"/><polygon points="62.32 86.37 62.8 85.96 63.2 86.43 63.68 86.01 64.09 86.49 64.55 86.09 64.96 86.57 65.43 86.16 65.84 86.63 66.33 86.2 66.74 86.68 67.15 86.32 67.53 86.76 68.01 86.34 68.41 86.81 68.89 86.39 69.31 86.88 69.79 86.47 70.2 86.95 70.68 86.53 71.1 87.02 71.58 86.61 71.99 87.09 72.48 86.67 72.91 87.16 73.41 86.72 73.84 87.23 74.34 86.79 74.78 87.3 75.29 86.86 75.72 87.37 75.67 88.05 62.27 87.05 62.32 86.37" style="fill:#9c11a5"/><polygon points="70.95 151.68 70.48 152.09 70.08 151.62 69.59 152.04 69.18 151.56 68.72 151.96 68.32 151.48 67.84 151.89 67.44 151.41 66.94 151.84 66.53 151.37 66.12 151.73 65.75 151.29 65.27 151.7 64.87 151.24 64.38 151.66 63.96 151.17 63.49 151.58 63.07 151.1 62.59 151.52 62.17 151.03 61.69 151.44 61.28 150.96 60.79 151.38 60.37 150.89 59.87 151.32 59.43 150.82 58.93 151.26 58.49 150.75 57.99 151.19 57.55 150.68 57.6 150 71 151 70.95 151.68" style="fill:#9c11a5"/><polygon points="57.56 150.69 57.09 151.1 56.69 150.63 56.2 151.05 55.79 150.57 55.33 150.96 54.93 150.49 54.45 150.9 54.05 150.42 53.55 150.85 53.14 150.38 52.73 150.73 52.36 150.29 51.88 150.71 51.48 150.24 50.99 150.66 50.58 150.18 50.1 150.59 49.68 150.11 49.2 150.53 48.78 150.03 48.3 150.45 47.89 149.97 47.4 150.39 46.98 149.89 46.48 150.33 46.04 149.83 45.54 150.26 45.1 149.75 44.6 150.19 44.16 149.69 44.21 149.01 57.61 150 57.56 150.69" style="fill:#9c11a5"/><g style="opacity:0.2"><rect x="83.77" y="89.28" width="26.86" height="63.94" transform="translate(9.23 -6.86) rotate(4.24)" style="fill:#9c11a5"/><polygon points="86.19 88.14 86.66 87.73 87.06 88.2 87.55 87.78 87.96 88.26 88.42 87.86 88.82 88.34 89.29 87.93 89.7 88.4 90.2 87.97 90.61 88.45 91.02 88.09 91.39 88.53 91.87 88.11 92.27 88.58 92.76 88.16 93.17 88.65 93.65 88.23 94.06 88.72 94.55 88.3 94.97 88.79 95.45 88.38 95.86 88.86 96.35 88.43 96.77 88.93 97.27 88.5 97.7 89 98.21 88.56 98.64 89.07 99.15 88.63 99.59 89.14 99.54 89.82 86.14 88.82 86.19 88.14" style="fill:#9c11a5"/><polygon points="99.58 89.13 100.05 88.72 100.45 89.19 100.94 88.77 101.35 89.25 101.81 88.86 102.21 89.33 102.68 88.92 103.09 89.4 103.59 88.97 104 89.44 104.41 89.08 104.78 89.52 105.26 89.11 105.66 89.58 106.15 89.16 106.56 89.64 107.04 89.23 107.45 89.71 107.94 89.29 108.36 89.78 108.84 89.37 109.25 89.85 109.74 89.43 110.16 89.92 110.66 89.49 111.09 89.99 111.6 89.55 112.03 90.06 112.54 89.62 112.98 90.13 112.93 90.81 99.53 89.81 99.58 89.13" style="fill:#9c11a5"/><polygon points="108.21 154.44 107.73 154.85 107.33 154.38 106.85 154.8 106.44 154.32 105.98 154.72 105.57 154.24 105.1 154.65 104.69 154.18 104.19 154.61 103.79 154.13 103.38 154.49 103 154.05 102.52 154.47 102.12 154 101.64 154.42 101.22 153.93 100.74 154.35 100.33 153.86 99.85 154.28 99.42 153.79 98.95 154.2 98.53 153.72 98.05 154.15 97.62 153.65 97.12 154.09 96.69 153.58 96.18 154.02 95.75 153.51 95.24 153.95 94.81 153.44 94.86 152.76 108.26 153.76 108.21 154.44" style="fill:#9c11a5"/><polygon points="94.82 153.45 94.34 153.86 93.94 153.39 93.46 153.81 93.05 153.33 92.59 153.72 92.18 153.25 91.71 153.66 91.3 153.18 90.81 153.62 90.4 153.14 89.99 153.5 89.61 153.06 89.13 153.47 88.73 153 88.25 153.43 87.83 152.94 87.35 153.35 86.94 152.87 86.46 153.29 86.03 152.8 85.56 153.21 85.14 152.73 84.66 153.15 84.23 152.66 83.73 153.09 83.3 152.59 82.8 153.03 82.36 152.52 81.85 152.96 81.42 152.45 81.47 151.77 94.87 152.76 94.82 153.45" style="fill:#9c11a5"/></g><g style="opacity:0.2"><rect x="120.65" y="92.02" width="26.86" height="63.94" transform="translate(9.54 -9.58) rotate(4.24)" style="fill:#9c11a5"/><polygon points="123.07 90.88 123.55 90.46 123.95 90.93 124.43 90.51 124.85 90.99 125.3 90.6 125.71 91.07 126.18 90.66 126.59 91.14 127.09 90.71 127.49 91.18 127.91 90.83 128.28 91.27 128.76 90.85 129.16 91.32 129.65 90.9 130.06 91.39 130.54 90.97 130.95 91.45 131.43 91.03 131.86 91.53 132.33 91.11 132.75 91.59 133.23 91.17 133.66 91.67 134.16 91.23 134.59 91.73 135.1 91.3 135.53 91.81 136.04 91.36 136.47 91.87 136.42 92.55 123.02 91.56 123.07 90.88" style="fill:#9c11a5"/><polygon points="136.46 91.87 136.94 91.46 137.34 91.93 137.82 91.51 138.24 91.99 138.69 91.59 139.1 92.07 139.57 91.66 139.98 92.13 140.48 91.7 140.88 92.18 141.29 91.82 141.67 92.26 142.15 91.84 142.55 92.31 143.03 91.89 143.45 92.38 143.93 91.96 144.34 92.44 144.82 92.03 145.25 92.52 145.72 92.11 146.14 92.59 146.62 92.16 147.05 92.66 147.55 92.22 147.98 92.73 148.49 92.29 148.92 92.8 149.43 92.36 149.86 92.87 149.81 93.54 136.41 92.55 136.46 91.87" style="fill:#9c11a5"/><polygon points="145.09 157.18 144.62 157.59 144.22 157.12 143.73 157.54 143.32 157.06 142.87 157.45 142.46 156.98 141.99 157.39 141.58 156.91 141.08 157.34 140.68 156.87 140.26 157.22 139.89 156.79 139.41 157.2 139.01 156.73 138.52 157.15 138.11 156.67 137.63 157.08 137.22 156.6 136.74 157.02 136.31 156.52 135.83 156.94 135.42 156.46 134.94 156.88 134.51 156.38 134.01 156.82 133.58 156.32 133.07 156.75 132.64 156.25 132.13 156.69 131.69 156.18 131.74 155.5 145.15 156.49 145.09 157.18" style="fill:#9c11a5"/><polygon points="131.71 156.18 131.23 156.6 130.83 156.13 130.34 156.55 129.93 156.06 129.48 156.46 129.07 155.99 128.6 156.4 128.19 155.92 127.69 156.35 127.28 155.87 126.87 156.23 126.5 155.79 126.02 156.21 125.62 155.74 125.13 156.16 124.72 155.67 124.24 156.09 123.83 155.61 123.34 156.03 122.92 155.53 122.44 155.95 122.03 155.47 121.55 155.89 121.12 155.39 120.62 155.83 120.19 155.32 119.68 155.76 119.25 155.25 118.74 155.69 118.3 155.19 118.35 154.51 131.75 155.5 131.71 156.18" style="fill:#9c11a5"/></g><path d="M59,91.72l-.69,9.33-1.46-.11.28-3.76a1.51,1.51,0,0,1-.63.35,2,2,0,0,1-.67.08,1.67,1.67,0,0,1-1.32-.69,2.51,2.51,0,0,1-.34-1.59l.29-3.94,1.47.11-.29,3.82a.84.84,0,0,0,.79,1,.66.66,0,0,0,.57-.21,1.09,1.09,0,0,0,.26-.69l.28-3.79Z" style="fill:#ca79d3"/><path d="M61.22,95.84l2,.15-.1,1.33-2-.15-.21,2.73,2.54.19-.1,1.33-4-.29L60,91.8l4,.3-.1,1.33-2.53-.19Z" style="fill:#ca79d3"/><path d="M66.45,97.92l-.52.82-.21,2.86-1.47-.11.69-9.32,1.47.11-.3,4.06,2.22-3.92,1.46.11-2.34,4,1.65,5.32-1.5-.11Z" style="fill:#ca79d3"/><line x1="176.9" y1="62.03" x2="142.32" y2="46.65" style="fill:#eb88c1;stroke:#f747ab;stroke-linecap:round;stroke-linejoin:round;stroke-width:2.073145730178846px"/><line x1="36.28" y1="46.53" x2="53.13" y2="44.98" style="fill:#eb88c1;stroke:#f747ab;stroke-linecap:round;stroke-linejoin:round;stroke-width:2.0887679957374825px"/><line x1="33.71" y1="183.73" x2="64.05" y2="183.73" style="fill:none;stroke:#9c11a5;stroke-linecap:round;stroke-linejoin:round;stroke-width:2.2861319008465366px"/><line x1="100.75" y1="55.84" x2="119.87" y2="55.84" style="fill:none;stroke:#9c11a5;stroke-linecap:round;stroke-linejoin:round;stroke-width:2.2861319008465366px"/><path d="M23.61,27.15l8-.89.27,2.34-2.7.3L30.72,43l-2.57.29L26.57,29.19l-2.7.31Z" style="fill:#9c11a5"/><path d="M42.88,41.59l-2.6.29L39.5,39l-3.16.35-.11,3-2.37.27.78-16.7,3.77-.42Zm-6.46-4.54,2.48-.28-2.18-8.15Z" style="fill:#9c11a5"/><path d="M46.72,34.54l-.63,1.59.57,5-2.58.29-1.85-16.4,2.58-.29.8,7.14,2.57-7.52,2.58-.29L48,31.81l4.61,8.69L50,40.79Z" style="fill:#9c11a5"/><path d="M127.92,34.26,126,33.41l5.42-12.07,1.9.86L131,27.37l2.16,1,2.32-5.16,1.93.86L132,36.1l-1.93-.87,2.32-5.17-2.15-1Z" style="fill:#9c11a5"/><path d="M139.52,39.48l-1.91-.86.65-2.34-2.32-1.05-1.31,2-1.74-.78,7.35-11.19L143,26.54Zm-2.6-5.78,1.82.83L140.57,28Z" style="fill:#9c11a5"/><path d="M145.15,44l.73-1.62-4-1.82-.73,1.62-1.84-.83,1.49-3.3.74.33a2.14,2.14,0,0,0,.63-.52,4.91,4.91,0,0,0,.54-.84l4.39-8.61,5.3,2.38-4.66,10.38.83.37L147,44.8Zm-.62-6.18a4,4,0,0,1-.63,1,1.44,1.44,0,0,1-.62.4l2.48,1.12,3.89-8.65-1.6-.72Z" style="fill:#9c11a5"/><path d="M153.84,37.52l2.61,1.17-.78,1.73-2.6-1.17-1.59,3.53,3.27,1.47L154,46l-5.17-2.33,5.42-12.06,5.17,2.32-.77,1.73-3.28-1.48Z" style="fill:#9c11a5"/><path d="M163.85,41.77l4.43-3.87,1.9.86-4.53,3.84-.9,8.22-1.95-.88.68-6.11-.87.7-2,4.43-1.87-.84,2-4.43,0-1.14-4.13,4.58-2-.87,5.54-6.07-.12-6,1.9.85.05,5.89,2.19-4.88,1.88.85Z" style="fill:#9c11a5"/><path d="M167.46,52l-1.9-.86L171,39.12l1.9.85-2.32,5.17,2.15,1L175,40.94l1.93.87-5.42,12.06L169.61,53l2.32-5.17-2.15-1Z" style="fill:#9c11a5"/><path d="M178,48.36l2.61,1.18-.78,1.72-2.6-1.17-1.59,3.53,3.27,1.47-.77,1.73-5.17-2.33,5.42-12.06,5.17,2.32-.77,1.73L179.46,45Z" style="fill:#9c11a5"/><path d="M184.3,51.22l2.6,1.17-.78,1.72-2.6-1.17-1.59,3.53L185.21,58l-.78,1.72-5.17-2.33,5.42-12.06,5.17,2.33-.77,1.72-3.27-1.47Z" style="fill:#9c11a5"/><line x1="159.89" y1="25.6" x2="158.46" y2="19.03" style="fill:none;stroke:#9c11a5;stroke-linecap:round;stroke-linejoin:round;stroke-width:2.073145730178846px"/><line x1="165.79" y1="27.6" x2="169.89" y2="22.32" style="fill:none;stroke:#9c11a5;stroke-linecap:round;stroke-linejoin:round;stroke-width:2.073145730178846px"/><line x1="170.74" y1="31.03" x2="177.89" y2="30.6" style="fill:none;stroke:#9c11a5;stroke-linecap:round;stroke-linejoin:round;stroke-width:2.073145730178846px"/></svg>