<svg id="Слой_1" data-name="Слой 1" xmlns="http://www.w3.org/2000/svg" viewBox="0 0 200 200"><title>icon-2</title><rect x="17.91" y="66.47" width="165.74" height="40.24" rx="3.34" ry="3.34" style="fill:#eb88c1"/><path d="M180.32,107.53H21.25a4.17,4.17,0,0,1-4.16-4.16V69.81a4.17,4.17,0,0,1,4.16-4.16H180.32a4.17,4.17,0,0,1,4.16,4.16v33.56A4.17,4.17,0,0,1,180.32,107.53ZM21.25,67.29a2.52,2.52,0,0,0-2.52,2.52v33.56a2.52,2.52,0,0,0,2.52,2.52H180.32a2.52,2.52,0,0,0,2.52-2.52V69.81a2.52,2.52,0,0,0-2.52-2.52Z" style="fill:#f747ab"/><path d="M27.73,81.59A5.18,5.18,0,0,1,29,77.88a4.63,4.63,0,0,1,3.53-1.3A4.62,4.62,0,0,1,36,77.88a5.18,5.18,0,0,1,1.23,3.71V92A5.2,5.2,0,0,1,36,95.67,4.61,4.61,0,0,1,32.49,97,4.62,4.62,0,0,1,29,95.67,5.2,5.2,0,0,1,27.73,92Zm3.13,10.56a2.17,2.17,0,0,0,.44,1.53,1.82,1.82,0,0,0,2.37,0,2.17,2.17,0,0,0,.44-1.53V81.39a2.14,2.14,0,0,0-.44-1.52,1.82,1.82,0,0,0-2.37,0,2.14,2.14,0,0,0-.44,1.52Z" style="fill:#f8d8e9"/><path d="M39,81.59a5.18,5.18,0,0,1,1.23-3.71,4.63,4.63,0,0,1,3.53-1.3,4.66,4.66,0,0,1,3.53,1.3,5.22,5.22,0,0,1,1.22,3.71V92a5.24,5.24,0,0,1-1.22,3.72A4.65,4.65,0,0,1,43.76,97a4.62,4.62,0,0,1-3.53-1.29A5.2,5.2,0,0,1,39,92Zm3.13,10.56a2.17,2.17,0,0,0,.44,1.53,1.82,1.82,0,0,0,2.37,0,2.17,2.17,0,0,0,.44-1.53V81.39a2.14,2.14,0,0,0-.44-1.52,1.82,1.82,0,0,0-2.37,0,2.14,2.14,0,0,0-.44,1.52Z" style="fill:#f8d8e9"/><path d="M50.27,81.59a5.18,5.18,0,0,1,1.23-3.71A4.63,4.63,0,0,1,55,76.58a4.66,4.66,0,0,1,3.53,1.3,5.22,5.22,0,0,1,1.22,3.71V92a5.24,5.24,0,0,1-1.22,3.72A4.65,4.65,0,0,1,55,97a4.62,4.62,0,0,1-3.53-1.29A5.2,5.2,0,0,1,50.27,92ZM53.4,92.15a2.12,2.12,0,0,0,.45,1.53,1.59,1.59,0,0,0,1.18.44,1.62,1.62,0,0,0,1.18-.44,2.17,2.17,0,0,0,.44-1.53V81.39a2.14,2.14,0,0,0-.44-1.52A1.62,1.62,0,0,0,55,79.43a1.59,1.59,0,0,0-1.18.44,2.09,2.09,0,0,0-.45,1.52Z" style="fill:#f8d8e9"/><path d="M61.54,81.59a5.18,5.18,0,0,1,1.23-3.71,5.44,5.44,0,0,1,7.06,0,5.22,5.22,0,0,1,1.22,3.71V92a5.24,5.24,0,0,1-1.22,3.72,5.47,5.47,0,0,1-7.06,0A5.2,5.2,0,0,1,61.54,92Zm3.14,10.56a2.12,2.12,0,0,0,.44,1.53,1.59,1.59,0,0,0,1.18.44,1.62,1.62,0,0,0,1.18-.44,2.17,2.17,0,0,0,.44-1.53V81.39a2.14,2.14,0,0,0-.44-1.52,1.62,1.62,0,0,0-1.18-.44,1.59,1.59,0,0,0-1.18.44,2.09,2.09,0,0,0-.44,1.52Z" style="fill:#f8d8e9"/><path d="M72.82,81.59A5.17,5.17,0,0,1,74,77.88a5.44,5.44,0,0,1,7.06,0,5.22,5.22,0,0,1,1.22,3.71V92a5.24,5.24,0,0,1-1.22,3.72,5.47,5.47,0,0,1-7.06,0A5.2,5.2,0,0,1,72.82,92ZM76,92.15a2.12,2.12,0,0,0,.44,1.53,1.8,1.8,0,0,0,2.36,0,2.17,2.17,0,0,0,.44-1.53V81.39a2.14,2.14,0,0,0-.44-1.52,1.8,1.8,0,0,0-2.36,0A2.09,2.09,0,0,0,76,81.39Z" style="fill:#f8d8e9"/><path d="M84.09,81.59a5.17,5.17,0,0,1,1.22-3.71,5.44,5.44,0,0,1,7.06,0,5.22,5.22,0,0,1,1.22,3.71V92a5.24,5.24,0,0,1-1.22,3.72,5.47,5.47,0,0,1-7.06,0A5.2,5.2,0,0,1,84.09,92Zm3.13,10.56a2.12,2.12,0,0,0,.44,1.53,1.8,1.8,0,0,0,2.36,0,2.12,2.12,0,0,0,.44-1.53V81.39A2.09,2.09,0,0,0,90,79.87a1.8,1.8,0,0,0-2.36,0,2.09,2.09,0,0,0-.44,1.52Z" style="fill:#f8d8e9"/><rect x="17.91" y="123.05" width="111.35" height="38.04" rx="2.66" ry="2.66" style="fill:#9c11a5"/><path d="M39.42,153.9v-2.5H33.17v2.5H30.33v-5.1h1.14a2.91,2.91,0,0,0,.52-1,6.78,6.78,0,0,0,.2-1.38l.67-13.58H41v16h1.28v5.1Zm-4.36-7.57a5.47,5.47,0,0,1-.25,1.59,2.17,2.17,0,0,1-.57.88h3.83V135.45H35.59Z" style="fill:#fff"/><path d="M43.7,137.26a4.89,4.89,0,0,1,1.14-3.47,4.36,4.36,0,0,1,3.3-1.21,4.37,4.37,0,0,1,3.3,1.21,4.89,4.89,0,0,1,1.14,3.47v9.68a4.89,4.89,0,0,1-1.14,3.47,4.37,4.37,0,0,1-3.3,1.21,4.36,4.36,0,0,1-3.3-1.21,4.89,4.89,0,0,1-1.14-3.47Zm2.92,9.86a2,2,0,0,0,.42,1.43,1.68,1.68,0,0,0,2.2,0,2,2,0,0,0,.41-1.43v-10a2,2,0,0,0-.41-1.43,1.68,1.68,0,0,0-2.2,0,2,2,0,0,0-.42,1.43Z" style="fill:#fff"/><path d="M54.49,151.4V132.8h8.19v2.65H57.42v4.76h1.7a4.35,4.35,0,0,1,3.31,1.17,4.84,4.84,0,0,1,1.1,3.43v2a4.84,4.84,0,0,1-1.1,3.43,4.35,4.35,0,0,1-3.31,1.17Zm4.63-2.65a1.54,1.54,0,0,0,1.09-.38,1.88,1.88,0,0,0,.4-1.38v-2.36a1.91,1.91,0,0,0-.4-1.39,1.58,1.58,0,0,0-1.09-.37h-1.7v5.88Z" style="fill:#fff"/><path d="M75,151.4H72L71.5,148H67.92l-.51,3.37H64.73l3-18.6H72Zm-6.67-5.9h2.82l-1.41-9.41Z" style="fill:#fff"/><path d="M80.73,132.8A4.43,4.43,0,0,1,84,133.86a4.49,4.49,0,0,1,1,3.22v.66a5.44,5.44,0,0,1-.45,2.37,2.85,2.85,0,0,1-1.44,1.38A2.92,2.92,0,0,1,84.86,143a5.78,5.78,0,0,1,.49,2.52V147a3.94,3.94,0,0,1-4.44,4.41H76.32V132.8Zm-1.49,2.65v4.92h1.14a1.86,1.86,0,0,0,1.29-.42,2.05,2.05,0,0,0,.47-1.54v-1a2.35,2.35,0,0,0-.36-1.46,1.37,1.37,0,0,0-1.13-.46Zm0,7.58v5.72h1.67a1.51,1.51,0,0,0,1.13-.4,2.07,2.07,0,0,0,.39-1.44v-1.62a2.7,2.7,0,0,0-.44-1.78,1.87,1.87,0,0,0-1.45-.48Z" style="fill:#fff"/><path d="M90.11,151.4h-3V132.8h2.6v11.77l1.07-4.09,2.39-7.68h3.21v18.6H93.75V138.3l-1.19,4.57Z" style="fill:#fff"/><path d="M97.61,132.8h9v2.65h-3v16h-2.93v-16h-3Z" style="fill:#fff"/><path d="M107.92,151.4V132.8h2.92v7h1.39a4.25,4.25,0,0,1,3.28,1.17,4.88,4.88,0,0,1,1.08,3.43v2.41a4.88,4.88,0,0,1-1.08,3.43,4.25,4.25,0,0,1-3.28,1.17Zm4.31-2.65a1.43,1.43,0,0,0,1.06-.38,1.93,1.93,0,0,0,.37-1.38V144.2a2,2,0,0,0-.37-1.38,1.43,1.43,0,0,0-1.06-.37h-1.39v6.3Z" style="fill:#fff"/><path d="M20.51,26.85a3.54,3.54,0,0,1,2.75,1,4.07,4.07,0,0,1,.9,2.86v2a4.1,4.1,0,0,1-.9,2.87,3.57,3.57,0,0,1-2.75,1H19.35v5.85H16.91V26.85Zm-1.16,2.22v5.27h1.16A1.19,1.19,0,0,0,21.4,34a1.63,1.63,0,0,0,.31-1.16V30.54a1.65,1.65,0,0,0-.31-1.16,1.19,1.19,0,0,0-.89-.31Z" style="fill:#9c11a5"/><path d="M27.74,33.41H31.1v2.22H27.74v4.56H32v2.23H25.29V26.85H32v2.22H27.74Z" style="fill:#9c11a5"/><path d="M33.5,42.42V26.85H40v2.22H36V42.42Z" style="fill:#9c11a5"/><path d="M44.11,42.42H41.59V26.85h2.18V36.7l.89-3.43,2-6.42h2.69V42.42h-2.2v-11l-1,3.83Z" style="fill:#9c11a5"/><path d="M58.19,36.61v2.07a4.13,4.13,0,0,1-.93,2.9,3.47,3.47,0,0,1-2.72,1,3.5,3.5,0,0,1-2.73-1,4.17,4.17,0,0,1-.92-2.9v-8.1a4.19,4.19,0,0,1,.92-2.9,3.54,3.54,0,0,1,2.73-1,3.5,3.5,0,0,1,2.72,1,4.14,4.14,0,0,1,.93,2.9V32.1H55.87V30.43a1.64,1.64,0,0,0-.34-1.19,1.4,1.4,0,0,0-1.85,0,1.64,1.64,0,0,0-.34,1.19v8.4A1.6,1.6,0,0,0,53.68,40a1.43,1.43,0,0,0,1.85,0,1.6,1.6,0,0,0,.34-1.18V36.61Z" style="fill:#9c11a5"/><path d="M59,26.85h7.57v2.22H64V42.42H61.52V29.07H59Z" style="fill:#9c11a5"/><path d="M71.2,26.85a3.51,3.51,0,0,1,2.74,1,4,4,0,0,1,.91,2.86v2a4.05,4.05,0,0,1-.91,2.87,3.55,3.55,0,0,1-2.74,1H70v5.85H67.59V26.85ZM70,29.07v5.27H71.2a1.21,1.21,0,0,0,.89-.31,1.63,1.63,0,0,0,.31-1.16V30.54a1.65,1.65,0,0,0-.31-1.16,1.21,1.21,0,0,0-.89-.31Z" style="fill:#9c11a5"/><path d="M83.9,42.42H81.43L81,39.59H78l-.42,2.83H75.33l2.5-15.57h3.58Zm-5.58-4.94h2.35L79.49,29.6Z" style="fill:#9c11a5"/><path d="M85,26.85h2.45V40.19h2.78V26.85h2.49V40.24h1.07v4.27H91.44V42.42H85Z" style="fill:#9c11a5"/><path d="M97.67,42.42H95.15V26.85h2.18V36.7l.89-3.43,2-6.42h2.69V42.42h-2.2v-11l-1,3.83Z" style="fill:#9c11a5"/><path d="M104.2,42.42a3.28,3.28,0,0,0,.23-.88c0-.29,0-.63,0-1V38.12a5.58,5.58,0,0,1,.35-2.08,2.17,2.17,0,0,1,1.27-1.23c-1.06-.5-1.6-1.56-1.6-3.16V30.43a3.75,3.75,0,0,1,.86-2.69,3.67,3.67,0,0,1,2.77-.89h3.69V42.42h-2.45V36.08h-.84a1.54,1.54,0,0,0-1.22.44,2.36,2.36,0,0,0-.38,1.54V40.5c0,.31,0,.57,0,.78a4.87,4.87,0,0,1,0,.51,1.9,1.9,0,0,1-.08.34,2,2,0,0,0-.08.29Zm4-13.35a1.15,1.15,0,0,0-1,.38,2,2,0,0,0-.3,1.22v1.54a1.71,1.71,0,0,0,.39,1.29,1.58,1.58,0,0,0,1.08.35h1V29.07Z" style="fill:#9c11a5"/><path d="M124.47,26.85V42.42H122V36.14a2.4,2.4,0,0,1-1,.66,3.28,3.28,0,0,1-1.1.21,2.7,2.7,0,0,1-2.28-1,4.11,4.11,0,0,1-.77-2.59V26.85h2.45v6.38a1.5,1.5,0,0,0,.42,1.16,1.46,1.46,0,0,0,1,.37,1.15,1.15,0,0,0,.93-.41,1.85,1.85,0,0,0,.34-1.19V26.85Z" style="fill:#9c11a5"/><path d="M128.71,33.41h3.36v2.22h-3.36v4.56h4.23v2.23h-6.67V26.85h6.67v2.22h-4.23Z" style="fill:#9c11a5"/><path d="M137.66,36.21l-.76,1.42v4.79h-2.45V26.85h2.45v6.78l3.2-6.78h2.45l-3.4,6.94,3.4,8.63H140Z" style="fill:#9c11a5"/><path d="M151.58,42.42h-2.47l-.42-2.83h-3l-.42,2.83H143l2.49-15.57h3.58ZM146,37.48h2.35l-1.18-7.88Z" style="fill:#9c11a5"/><path d="M135.91,161l-1.2,1.57-1,5.77-2.95-.49,3.12-18.8,3,.49-1.37,8.19,5.23-7.54,3,.49-5.51,7.69,2.38,11.1-3-.5Z" style="fill:#f747ab"/><path d="M141.52,166.87a5.13,5.13,0,0,0,.86.09,1,1,0,0,0,.59-.17,1.17,1.17,0,0,0,.41-.54,6.13,6.13,0,0,0,.29-1l2.85-14.12,8.34,1.39-3.12,18.79-3-.5,2.68-16.11-2.58-.43-2.21,11.31a5.71,5.71,0,0,1-1.7,3.49,4.19,4.19,0,0,1-3.39.57l-.45-.08Z" style="fill:#f747ab"/><path d="M157,172.18l-3-.5,3.13-18.8,2.63.44-2,11.89,1.76-4,3.71-7.36,3.25.54-3.13,18.79-2.65-.44,2.2-13.23-2,4.41Z" style="fill:#f747ab"/><path d="M170.57,166.74l-1.2,1.56-1,5.77-2.95-.49,3.12-18.79,3,.49-1.37,8.19,5.23-7.55,3,.5-5.51,7.69,2.38,11.1-3-.51Z" style="fill:#f747ab"/><path d="M179.94,173.07l-.47,2.85-2.84-.48.47-2.84Zm-2.3-1.74.75-6.85,1.31-7.84,3,.49-1.3,7.84-1.51,6.73Z" style="fill:#f747ab"/><path d="M136.62,144.5l-1.55-.26,1.65-9.91,4.91.81L140,145.06l-1.59-.27,1.42-8.5L138,136Z" style="fill:#f747ab"/><path d="M142.24,137.69a2.61,2.61,0,0,1,.92-1.75,2.31,2.31,0,0,1,1.86-.35,2.36,2.36,0,0,1,1.65.94,2.65,2.65,0,0,1,.3,1.95l-.86,5.15a2.61,2.61,0,0,1-.92,1.75,2.31,2.31,0,0,1-1.86.35,2.36,2.36,0,0,1-1.65-.94,2.65,2.65,0,0,1-.3-1.95Zm.68,5.51a1,1,0,0,0,.1.8.78.78,0,0,0,.55.31.81.81,0,0,0,.62-.12,1.06,1.06,0,0,0,.35-.72l.89-5.35a1,1,0,0,0-.1-.8.78.78,0,0,0-.55-.31.81.81,0,0,0-.62.12,1.06,1.06,0,0,0-.35.72Z" style="fill:#f747ab"/><path d="M146.73,146.18l1.65-9.91,4.37.72-.24,1.42-2.8-.47-.43,2.54.91.15a2.34,2.34,0,0,1,1.66.91,2.6,2.6,0,0,1,.28,1.93l-.17,1.06a2.69,2.69,0,0,1-.89,1.73,2.37,2.37,0,0,1-1.87.33Zm2.7-1a.84.84,0,0,0,.62-.1,1,1,0,0,0,.33-.7l.21-1.26a1,1,0,0,0-.09-.77.81.81,0,0,0-.54-.3l-.91-.15-.52,3.13Z" style="fill:#f747ab"/><path d="M155.11,141.68l2.14.35-.24,1.42-2.14-.35-.48,2.9,2.69.45-.23,1.41-4.25-.7,1.65-9.92,4.25.71-.24,1.41-2.69-.44Z" style="fill:#f747ab"/><path d="M162.09,150.1l.22-1.33-3.33-.55-.22,1.33-1.51-.25.45-2.72.61.1a1.67,1.67,0,0,0,.37-.51,4.73,4.73,0,0,0,.23-.72l1.55-7.17,4.37.72-1.42,8.53.68.11-.46,2.72Zm-1.65-4.42a2.82,2.82,0,0,1-.28.83,1.25,1.25,0,0,1-.38.41l2,.34,1.18-7.11-1.31-.22Z" style="fill:#f747ab"/><path d="M166.28,149.43l-1.56-.26,1.65-9.91,1.56.26-.71,4.25,1.77.29.71-4.25,1.58.27L169.63,150l-1.58-.26.7-4.25-1.77-.3Z" style="fill:#f747ab"/><path d="M170.77,150.18l1.65-9.92,1.55.26-.62,3.73.74.12a2.33,2.33,0,0,1,1.65.92,2.62,2.62,0,0,1,.26,1.92l-.21,1.29a2.59,2.59,0,0,1-.88,1.73,2.3,2.3,0,0,1-1.85.33Zm2.53-1a.79.79,0,0,0,.6-.1,1.06,1.06,0,0,0,.32-.7l.24-1.49a1.06,1.06,0,0,0-.07-.77.79.79,0,0,0-.53-.29l-.74-.12-.56,3.35Zm3,2,1.65-9.91,1.55.26-1.65,9.91Z" style="fill:#f747ab"/><path d="M180.57,151.81l-1.6-.27,1.65-9.91,1.38.23-1,6.27.93-2.08,2-3.88,1.72.28-1.65,9.91-1.4-.23,1.16-7-1,2.33Zm4.56-11.7a1.62,1.62,0,0,1-.6,1.08,1.69,1.69,0,0,1-1.32.22,1.61,1.61,0,0,1-1.14-.63,1.74,1.74,0,0,1-.22-1.22l1,.16a.73.73,0,0,0,.1.56,1,1,0,0,0,1,.16.68.68,0,0,0,.29-.49Z" style="fill:#f747ab"/><line x1="132.93" y1="133.12" x2="125.31" y2="127.35" style="fill:#eb88c1"/><path d="M132.93,133.88a.74.74,0,0,1-.46-.16L124.85,128a.76.76,0,0,1,.92-1.21l7.61,5.77a.75.75,0,0,1,.15,1.06A.77.77,0,0,1,132.93,133.88Z" style="fill:#f747ab"/><line x1="139.32" y1="130.24" x2="138.96" y2="123.05" style="fill:#eb88c1"/><path d="M139.32,131a.75.75,0,0,1-.76-.72l-.36-7.19a.76.76,0,0,1,.72-.79.75.75,0,0,1,.8.72l.35,7.19a.75.75,0,0,1-.72.79Z" style="fill:#f747ab"/><path d="M130.23,140.89h-4.41a.76.76,0,1,1,0-1.51h4.41a.76.76,0,1,1,0,1.51Z" style="fill:#f747ab"/><path d="M89.34,161.92c0-2.9,0-5.6,0-8.29a8.69,8.69,0,0,1,.14-1.77,1.92,1.92,0,0,1,1.91-1.69,1.82,1.82,0,0,1,1.94,1.62,30,30,0,0,1,.2,3.94,2.6,2.6,0,0,1,2.69.39c.23.21.49,0,.73-.09.93-.21,1.52.27,2.25.81.49.36,1.54-.26,2.22.44a2.17,2.17,0,0,1,.62,1.39,34.57,34.57,0,0,1,.16,7.54c-.49,3.87-2.56,5.64-6.43,5.79-3.5.14-5.77-1.47-7.19-4.51a11.14,11.14,0,0,0-2.64-3.11,6.45,6.45,0,0,1-1.34-1.47,1.7,1.7,0,0,1,.24-2.24,1.85,1.85,0,0,1,2.43-.33C87.92,160.76,88.5,161.28,89.34,161.92Z" style="fill:#07293f"/><path d="M99.52,160.2c0-.51.07-1,.06-1.53s.11-.7.46-.79a.61.61,0,0,1,.81.51c.45,3.12.16,6-2.09,8.5a9.22,9.22,0,0,1-5,2.87,3.47,3.47,0,0,1-2.29-.18,4.21,4.21,0,0,1-1.6-2,12.9,12.9,0,0,0-3.53-4.36,5.21,5.21,0,0,1-.68-.73c-.26-.34-.45-.71-.08-1.09a.88.88,0,0,1,1.29-.12A9.19,9.19,0,0,1,90.21,165a1.35,1.35,0,0,0,.16-1q0-5.23,0-10.47a6.61,6.61,0,0,1,0-.89c.09-.67.17-1.42,1.09-1.39s.91.76.91,1.38c0,2.45,0,4.91,0,7.36,0,.41-.17.9.59.91s.59-.47.6-.89c0-.74,0-1.49,0-2.23s.32-1.18,1.13-1.18.87.55.87,1.14,0,1.19,0,1.78c0,.38-.27.95.54.94s.43-.54.46-.88,0-.89,0-1.33-.08-1.08.67-1.18,1,.34,1.14.93a2.9,2.9,0,0,0,.16.41,2.42,2.42,0,0,1,.1,1.28C98.71,160.33,99,160.46,99.52,160.2Z" style="fill:#fefefe"/><path d="M91.44,169.58a8.58,8.58,0,0,0,8-4.14,9.25,9.25,0,0,0,1.36-5.16c0-.63,0-1.26,0-1.89.5,3.25.91,6.5-.27,9.7a4,4,0,0,1-4,2.79C94.76,170.93,92.88,171.13,91.44,169.58Z" style="fill:#d0d2d4"/><path d="M99.52,160.2c-.89.4-.91.4-.93-.44,0-.45,0-.89,0-1.34.36.31.22.73.22,1.11S99,160.25,99.52,160.2Z" style="fill:#000124"/><line x1="17.91" y1="48.05" x2="99.15" y2="48.23" style="fill:#eb88c1"/><path d="M99.15,49h0l-81.24-.17a.76.76,0,0,1,0-1.51h0l81.23.17a.76.76,0,1,1,0,1.51Z" style="fill:#f747ab"/></svg>