<svg id="Слой_1" data-name="Слой 1" xmlns="http://www.w3.org/2000/svg" viewBox="0 0 200 200"><title>icon-1</title><circle cx="101.55" cy="82.51" r="42.52" style="fill:#eb88c1"/><path d="M101.55,125.87a43.36,43.36,0,1,1,43.36-43.36A43.41,43.41,0,0,1,101.55,125.87Zm0-85a41.68,41.68,0,1,0,41.67,41.67A41.72,41.72,0,0,0,101.55,40.84Z" style="fill:#f747ab"/><path d="M29.24,102.36a1,1,0,0,1-.24-2l18.79-4.83A1,1,0,0,1,49,96.3a1,1,0,0,1-.71,1.2l-18.8,4.83A1.07,1.07,0,0,1,29.24,102.36Z" style="fill:#f747ab"/><path d="M43.13,108.33a1,1,0,0,1-.4-1.91l6.92-3a1,1,0,0,1,.79,1.83l-6.92,3A.92.92,0,0,1,43.13,108.33Z" style="fill:#f747ab"/><path d="M39.94,155.1a3.06,3.06,0,0,0-.35-2,1.71,1.71,0,0,0-1.27-.62,1.81,1.81,0,0,0-1.37.4,2.3,2.3,0,0,0-.63,1.65l-.14,1.81-3.2-.23.12-1.65a6,6,0,0,1,1.59-4,4.94,4.94,0,0,1,4-1.13A5,5,0,0,1,42.42,151a5.93,5.93,0,0,1,1,4.23l0,.57q-.26,3.55-2.78,4.39a3.48,3.48,0,0,1,1.76,1.89,6.78,6.78,0,0,1,.34,2.94l-.13,1.75a5.94,5.94,0,0,1-1.62,4A5,5,0,0,1,37,172a5,5,0,0,1-3.77-1.73,5.91,5.91,0,0,1-1-4.23l.18-2.44,3.29.24-.19,2.67a2.37,2.37,0,0,0,.36,1.73,2,2,0,0,0,2.64.18,3,3,0,0,0,.63-2l.13-1.75a3.37,3.37,0,0,0-.38-2.22,2.16,2.16,0,0,0-1.69-.77l-.86-.06.24-3.17,1,.08a2.16,2.16,0,0,0,1.58-.4,2.47,2.47,0,0,0,.69-1.79Z" style="fill:#9c11a5"/><path d="M55.82,173.09l-3.52-.25-.3-4.07-4.28-.32-.9,4-3.2-.23,5.18-21.93,5.1.38Zm-7.44-7.62,3.36.25-.85-11.34Z" style="fill:#9c11a5"/><path d="M62.65,164.71l-1.23,1.95-.5,6.81-3.48-.26L59.07,151l3.48.26L61.84,161l5.28-9.33,3.49.26L65,161.41,69,174.06l-3.58-.26Z" style="fill:#9c11a5"/><path d="M81.84,175l-3.52-.26-.3-4.07-4.28-.31-.9,4-3.2-.24,5.18-21.92,5.1.37Zm-7.44-7.62,3.36.24-.85-11.34Z" style="fill:#9c11a5"/><path d="M91.41,158.89a3,3,0,0,0-.35-2,1.71,1.71,0,0,0-1.27-.62,1.85,1.85,0,0,0-1.37.39,2.35,2.35,0,0,0-.63,1.66l-.14,1.81-3.2-.24.12-1.65a6,6,0,0,1,1.59-4,6,6,0,0,1,7.73.61,5.91,5.91,0,0,1,1,4.23l0,.57c-.18,2.37-1.1,3.83-2.78,4.38a3.53,3.53,0,0,1,1.76,1.9,6.93,6.93,0,0,1,.34,2.94l-.13,1.74a5.9,5.9,0,0,1-1.62,4,5.95,5.95,0,0,1-7.76-.57,5.88,5.88,0,0,1-1-4.23l.18-2.44,3.29.24-.19,2.66A2.4,2.4,0,0,0,87.3,172a1.79,1.79,0,0,0,1.28.58,1.72,1.72,0,0,0,1.35-.41,2.87,2.87,0,0,0,.64-2l.13-1.74a3.39,3.39,0,0,0-.38-2.23,2.15,2.15,0,0,0-1.69-.76l-.86-.06.24-3.17,1,.08a2.26,2.26,0,0,0,1.58-.4,2.44,2.44,0,0,0,.68-1.8Z" style="fill:#9c11a5"/><path d="M112,178.32l-2.76.49-3.11-17.56,8.7-1.54,3.11,17.55-2.8.5-2.68-15-3.13.56Z" style="fill:#9c11a5"/><path d="M120.87,158.63a4.08,4.08,0,0,1,3.29.55,4.7,4.7,0,0,1,1.59,3.06l.41,2.28a4.7,4.7,0,0,1-.45,3.42,4.08,4.08,0,0,1-2.9,1.65l-1.3.23,1.17,6.6-2.76.49-3.12-17.56Zm-.86,2.74,1,5.94,1.31-.23a1.38,1.38,0,0,0,.94-.53,1.88,1.88,0,0,0,.12-1.36l-.47-2.64a1.89,1.89,0,0,0-.58-1.24,1.39,1.39,0,0,0-1.07-.17Z" style="fill:#9c11a5"/><path d="M132.21,174.72l-2.83.51-3.12-17.56,2.46-.43,2,11.11.32-4,1-7.65,3-.54,3.12,17.55-2.49.45-2.19-12.37-.36,4.52Z" style="fill:#9c11a5"/><path d="M142.84,172.84l-2.76.49L137,155.77l2.76-.49,1.33,7.53,3.14-.56-1.34-7.52,2.81-.5,3.12,17.55-2.81.5-1.34-7.52-3.13.55Z" style="fill:#9c11a5"/><path d="M150.29,171.51a4,4,0,0,0,.08-1c0-.33-.08-.72-.16-1.15l-.48-2.71a6.54,6.54,0,0,1,0-2.41,2.54,2.54,0,0,1,1.2-1.65c-1.31-.35-2.12-1.43-2.44-3.24l-.24-1.38a4.33,4.33,0,0,1,.42-3.21,4.25,4.25,0,0,1,3-1.55l4.16-.74L158.87,170l-2.76.49-1.27-7.15-1,.17a1.76,1.76,0,0,0-1.29.75,2.69,2.69,0,0,0-.12,1.81l.49,2.76c.06.35.11.64.14.88a4.86,4.86,0,0,1,0,.58,2.18,2.18,0,0,1,0,.39c0,.11,0,.22,0,.35Zm1.82-15.84a1.28,1.28,0,0,0-1,.62,2.24,2.24,0,0,0-.1,1.44l.31,1.73a2,2,0,0,0,.7,1.37,1.76,1.76,0,0,0,1.29.19l1.07-.19-.95-5.4Z" style="fill:#9c11a5"/><path d="M157,152.22l8.53-1.51.45,2.51-2.89.51,2.67,15.05-2.76.49-2.67-15.05-2.88.51Z" style="fill:#9c11a5"/><path d="M169.46,164.1,168,157.82l-1.3-7.32,2.76-.49,1.3,7.32.78,6.41Zm2.58.81.47,2.66-2.66.47-.47-2.66Z" style="fill:#9c11a5"/><path d="M132.65,38.15a1,1,0,0,1-1-.92l-.7-9a1,1,0,1,1,2-.16l.7,9a1,1,0,0,1-.91,1.06Z" style="fill:#9c11a5"/><path d="M140.17,42.66a1,1,0,0,1-.69-1.7l6.43-6.31a1,1,0,1,1,1.39,1.42l-6.44,6.3A1,1,0,0,1,140.17,42.66Z" style="fill:#9c11a5"/><path d="M155.67,50.28h-.08L146,49.54a1,1,0,0,1,.15-2l9.62.74a1,1,0,0,1,.91,1.06A1,1,0,0,1,155.67,50.28Z" style="fill:#9c11a5"/><polygon points="78.27 84.64 85.56 77.36 96.45 88.25 119.75 64.96 126.92 72.13 96.67 102.37 96.34 102.03 96 102.37 78.27 84.64" style="fill:#fae5f3"/><path d="M119.75,65.66l6.46,6.47L96.67,101.66l-.33-.34-.34.34-17-17,6.58-6.58L96.45,89l23.3-23.3m0-1.41L119,65,96.45,87.54,86.26,77.36l-.7-.71-.71.71-6.58,6.57-.71.71.71.71,17,17,.71.71.34-.34.33.34.71-.71,29.54-29.53.7-.71-.7-.71L120.45,65l-.7-.71Z" style="fill:#f747ab"/><circle cx="88.13" cy="20.12" r="4.16" style="fill:#eb88c1"/><path d="M88.13,25.26a5.15,5.15,0,1,1,5.14-5.14A5.15,5.15,0,0,1,88.13,25.26Zm0-8.31a3.17,3.17,0,1,0,3.16,3.17A3.17,3.17,0,0,0,88.13,17Z" style="fill:#f747ab"/><circle cx="101.3" cy="28.12" r="2.16" style="fill:#eb88c1"/><path d="M101.3,31.27a3.16,3.16,0,1,1,3.15-3.15A3.16,3.16,0,0,1,101.3,31.27Zm0-4.32a1.17,1.17,0,0,0,0,2.34,1.17,1.17,0,1,0,0-2.34Z" style="fill:#f747ab"/><circle cx="38.32" cy="61.42" r="4.72" style="fill:#9c11a5"/><path d="M163.09,83a5.54,5.54,0,1,1,5.54-5.54A5.54,5.54,0,0,1,163.09,83Zm0-9.1a3.56,3.56,0,1,0,3.55,3.56A3.57,3.57,0,0,0,163.09,73.9Z" style="fill:#f747ab"/><path d="M58.36,134.9a5.49,5.49,0,1,1,5.48-5.49A5.49,5.49,0,0,1,58.36,134.9Zm0-8.77a3.28,3.28,0,1,0,3.27,3.28A3.28,3.28,0,0,0,58.36,126.13Z" style="fill:#f747ab"/><circle cx="115.67" cy="143.03" r="4.3" style="fill:#9c11a5"/><circle cx="102.36" cy="138.93" r="2.33" style="fill:#9c11a5"/><line x1="52.33" y1="179.06" x2="90.21" y2="181.94" style="fill:#eb88c1"/><path d="M90.21,182.79h-.07l-37.87-2.88a.84.84,0,0,1-.78-.91.85.85,0,0,1,.91-.79l37.87,2.88a.85.85,0,0,1-.06,1.7Z" style="fill:#f747ab"/><line x1="129.2" y1="180.95" x2="156.49" y2="176.52" style="fill:#eb88c1"/><path d="M129.2,181.71a.76.76,0,0,1-.75-.64.77.77,0,0,1,.63-.87l27.29-4.43a.76.76,0,0,1,.87.63.74.74,0,0,1-.63.86l-27.29,4.44Z" style="fill:#f747ab"/></svg>