<?xml version="1.0" encoding="utf-8"?>
<!-- Generator: Adobe Illustrator 22.1.0, SVG Export Plug-In . SVG Version: 6.00 Build 0)  -->
<svg version="1.1" id="Слой_1" xmlns="http://www.w3.org/2000/svg" xmlns:xlink="http://www.w3.org/1999/xlink" x="0px" y="0px"
	 viewBox="0 0 191 80.6" style="enable-background:new 0 0 191 80.6;" xml:space="preserve">
<g>
	<path style="fill-rule:evenodd;clip-rule:evenodd;fill:#FFFFFF;" d="M57.7,31.6c-2.3-0.1-4.6,1.5-6.8,3.6c-0.6-1.5-1.1-2.7-2.7-3.7
		c-0.4-0.3-1.8-1-2.3,0.2C42.5,39.1,31.1,65.9,30,69.9c-1.2,3.9,0.3,7.6,3.4,8.7c0.9,0.3,1.3,0,1.7-0.9c3.3-8.7,5.8-15.2,8.3-21.3
		c1.3,2.2,3.5,5.1,7.2,5.1c9.2,0,15.3-11.6,15.7-18.4C66.5,37.4,64.7,31.9,57.7,31.6z M49.4,56.6c-2.9,0-2.8-6-0.2-12.3
		c1-2.4,2.1-5,4-6.9c0.8-0.8,1.9-1.5,3.1-1.4c2.3,0.1,2.3,3.3,2.3,4.1C58.6,47.4,52.4,56.6,49.4,56.6z"/>
	<path style="fill-rule:evenodd;clip-rule:evenodd;fill:#FFFFFF;" d="M177.7,31.3c-6.7,0.5-12.5,7.1-14.2,13.9l0,0
		c-2.7,9.3-5.7,10.9-6.7,10.9c-2,0-1.7-3.3-0.6-5.9c0.8-2.2,1.6-4.2,3.3-8.7c1.8-4.7-0.2-9.7-4.3-9.9c-3.2-0.1-7.3,1.8-9.7,4
		c-0.8-2.2-1.9-4-4.6-4.2c-3.1-0.2-7.4,2-9.5,4.2c-0.4-1.6-1.3-3.1-2.9-4.2c-0.6-0.5-2.2-0.6-2.8,0.7c-0.4,1-3.2,7.9-6.1,14.2
		c-2.7,4.4-8.7,11-13.6,11c-2.8,0-4-2.7-3.5-7.4c0.5-5.4,5.4-14.2,9-14.2c2.7,0-0.6,6-1.4,7.8c-0.7,1.5,0,2.1,2,2.4
		c2.7,0.4,6.4-1.8,6.4-7.5c0-4.5-4.6-7.6-10.6-7c-5.1,0.5-10.7,6.5-12.9,12.7c-2.8,5.8-9.7,13.2-14.8,13.2c-2.7,0-4.1-2.7-3.5-6.9
		c0,0,0,0,0,0c0,0,0,0,0,0c7.5,2.2,15.9-3.7,15.9-12c0-4.5-4.2-7-10-7c-8,0-14.5,10.2-14.5,18c0,8.2,4.7,12.3,11,12.3
		c5.6,0,10.8-3.4,15.6-7.7c1.4,5.2,5.5,7.7,10.5,7.7c4.9,0,9.4-2.7,12.2-4.7c0.7,2.1,2.2,3.8,4,4.3c1,0.2,1.3-0.2,1.7-1.1
		c3.1-7.5,5.4-13.5,7-16.6c2.3-4.2,4.9-5.5,5.9-5.5c2.2,0,2.4,2.5,1.8,4.2c-1.4,3.7-3.9,8.3-4.7,10.8c-1.3,3.8,0.5,7.4,4,8.3
		c1,0.2,1.4-0.2,1.7-1.1c2.2-6.1,5.7-15.2,6.8-18c1.1-2.7,3.2-4.2,4.5-4.2c2.2,0,2.4,2.5,1.8,4.2c-1,2.7-1.4,3-2.9,7
		c-2.4,6.3-0.1,12.4,5.3,12.4c3.5,0,6.4-1.4,10.4-5.4c1.7,3.6,5,5.5,9.5,5.5c5.3,0,16-5.4,16-18.6C189.6,34.7,183.5,30.8,177.7,31.3
		z M85.3,35.6c2.1,0,0.9,5-2.1,8.2c-1.6,1.8-3.9,2.9-6.3,2.7c0,0,0,0,0,0C78.5,41.5,82.4,35.6,85.3,35.6z M173,56.9
		c-1.8,0-2.2-2.8-2.2-5.3c0-8.2,5.6-16.1,8.6-16.1c1.7,0,2.7,1.6,2.7,3.7C182.2,47.4,176.7,56.9,173,56.9z"/>
	<path style="fill-rule:evenodd;clip-rule:evenodd;fill:#FFFFFF;" d="M44.5,17.7c-0.4-1.7-1.9-3.8-2.6-4.3c-0.7-0.5-1.6-0.6-2,0.1
		c-4.4,9.8-15.3,31.4-17.8,37.5c-0.5,1.4-0.7,2.3-0.3,3.9c0.4,2.2,2.7,5.3,5.2,5.9c0.5,0.1,1.2,0.3,1.6-0.8
		c5.2-14.9,11.2-29.4,15.7-39.6C44.7,19.6,44.8,19,44.5,17.7z"/>
	<path style="fill-rule:evenodd;clip-rule:evenodd;fill:#FFFFFF;" d="M29.9,19c-0.3-1.7-1.9-3.8-2.5-4.3c-0.7-0.5-1.6-0.7-2,0.1
		c-4.6,9.7-15.9,30-18.5,36.1c-0.6,1.3-0.7,2.3-0.4,3.9c0.4,2.2,2.6,5.4,5,6.1c0.5,0.1,1.2,0.3,1.6-0.8
		c5.6-14.8,11.7-28.2,16.5-38.3C30,20.8,30.2,20.2,29.9,19z"/>
	<path style="fill-rule:evenodd;clip-rule:evenodd;fill:#FFFFFF;" d="M9.3,33.3C7.2,16.5,23.5,5.9,37.2,6.5
		C49.7,7.1,53.9,16,51,23.5c-0.5,1.2-1.1,2.8,0.9,2.8c4.2,0,6.9-4,6.9-8.5c0-4-4.6-15.9-22.9-15.9C12,1.9,1.2,17.5,1.3,27.5
		c0,5.4,3.6,7.6,6.4,7.6C9,35.2,9.4,34.2,9.3,33.3z"/>
</g>
</svg>
